<?xml version="1.0" encoding="utf-8"?>
<!-- Generator: Adobe Illustrator 21.1.0, SVG Export Plug-In . SVG Version: 6.00 Build 0)  -->
<svg version="1.1" id="Layer_1" xmlns="http://www.w3.org/2000/svg" xmlns:xlink="http://www.w3.org/1999/xlink" x="0px" y="0px"
	 viewBox="0 0 17.8 10.4" style="enable-background:new 0 0 17.8 10.4;" xml:space="preserve">
<style type="text/css">
	.st0{fill:#FFFFFF;}
</style>
<g>
	<path class="st0" d="M17.8,1.5c0,0.2-0.1,0.3-0.2,0.4l-8.3,8.3c-0.1,0.1-0.3,0.2-0.4,0.2c-0.2,0-0.3-0.1-0.4-0.2L0.2,1.9
		C0.1,1.8,0,1.6,0,1.5s0.1-0.3,0.2-0.4l0.9-0.9C1.2,0.1,1.3,0,1.5,0c0.2,0,0.3,0.1,0.4,0.2l7,7l7-7C16,0.1,16.2,0,16.3,0
		c0.2,0,0.3,0.1,0.4,0.2l0.9,0.9C17.8,1.2,17.8,1.3,17.8,1.5z"/>
</g>
</svg>
