<?xml version="1.0" encoding="utf-8"?>
<!-- Generator: Adobe Illustrator 21.1.0, SVG Export Plug-In . SVG Version: 6.00 Build 0)  -->
<svg version="1.1" id="Layer_1" xmlns="http://www.w3.org/2000/svg" xmlns:xlink="http://www.w3.org/1999/xlink" x="0px" y="0px"
	 viewBox="0 0 27.7 21.2" style="enable-background:new 0 0 27.7 21.2;" xml:space="preserve">
<style type="text/css">
	.st0{fill:#cccccc;}
</style>
<g>
	<path class="st0" d="M27.2,5.4L14.2,18.3l-2.4,2.4c-0.3,0.3-0.8,0.5-1.2,0.5S9.7,21,9.4,20.7L7,18.3l-6.5-6.5
		C0.2,11.5,0,11.1,0,10.6s0.2-0.9,0.5-1.2L2.9,7c0.3-0.3,0.8-0.5,1.2-0.5S5,6.6,5.4,7l5.2,5.3L22.3,0.5C22.6,0.2,23.1,0,23.5,0
		s0.9,0.2,1.2,0.5l2.4,2.4c0.3,0.3,0.5,0.8,0.5,1.2S27.5,5,27.2,5.4z"/>
</g>
</svg>
