<?xml version="1.0" standalone="no"?>
<!DOCTYPE svg PUBLIC "-//W3C//DTD SVG 20010904//EN"
 "http://www.w3.org/TR/2001/REC-SVG-20010904/DTD/svg10.dtd">
<svg version="1.0" xmlns="http://www.w3.org/2000/svg"
 width="256.000000pt" height="256.000000pt" viewBox="0 0 256.000000 256.000000"
 preserveAspectRatio="xMidYMid meet">
<metadata>
Created by potrace 1.11, written by Peter Selinger 2001-2013
</metadata>
<g transform="translate(0.000000,256.000000) scale(0.100000,-0.100000)"
fill="#000000" stroke="none">
<path d="M414 2412 c-149 -2 -163 -4 -180 -23 -18 -20 -19 -57 -20 -1075 l0
-1054 21 -20 c20 -19 35 -21 172 -21 131 -1 154 2 172 17 21 18 21 23 21 455
l0 437 168 2 c92 1 181 3 197 5 17 2 53 6 80 10 165 19 306 80 402 175 114
112 172 253 178 434 6 212 -79 402 -228 513 -147 108 -264 140 -512 143 -93 0
-201 2 -240 3 -38 1 -143 1 -231 -1z m640 -380 c116 -42 167 -110 174 -233 9
-147 -58 -254 -183 -294 -50 -16 -91 -19 -250 -20 l-190 0 -3 275 c-1 151 0
281 3 288 4 11 42 13 198 9 162 -3 201 -7 251 -25z"/>
<path d="M1722 1280 c-8 -14 -12 -76 -12 -210 l0 -190 -194 0 c-235 0 -226 4
-226 -113 1 -122 -10 -117 224 -117 l196 0 0 -193 c0 -236 -5 -227 123 -227
64 0 89 4 101 16 13 13 16 46 16 210 l0 194 198 0 c141 0 201 3 210 12 8 8 12
46 12 105 0 81 -2 94 -19 103 -12 6 -98 10 -210 10 l-191 0 0 193 c-1 144 -4
196 -14 210 -11 14 -29 17 -107 17 -83 0 -96 -2 -107 -20z"/>
</g>
</svg>
