<?xml version="1.0" standalone="no"?>
<!DOCTYPE svg PUBLIC "-//W3C//DTD SVG 20010904//EN"
 "http://www.w3.org/TR/2001/REC-SVG-20010904/DTD/svg10.dtd">
<svg version="1.0" xmlns="http://www.w3.org/2000/svg"
 width="294.000000pt" height="294.000000pt" viewBox="0 0 294.000000 294.000000"
 preserveAspectRatio="xMidYMid meet">
<metadata>
Created by potrace 1.11, written by Peter Selinger 2001-2013
</metadata>
<g transform="translate(0.000000,294.000000) scale(0.100000,-0.100000)"
fill="#000000" stroke="none">
<path d="M775 2813 c-59 -8 -149 -35 -196 -58 -90 -46 -147 -128 -155 -224 -4
-51 -12 -145 -18 -236 -3 -33 -7 -85 -10 -115 -3 -30 -8 -89 -11 -130 -3 -41
-8 -95 -10 -120 -3 -25 -7 -83 -10 -130 -3 -47 -8 -107 -10 -135 -17 -179 -20
-269 -20 -605 0 -333 3 -417 20 -496 3 -12 7 -39 11 -60 11 -73 58 -197 89
-238 38 -50 86 -83 133 -92 111 -21 370 100 397 186 3 11 -1 29 -9 42 -18 28
-34 97 -44 187 -7 71 -7 840 1 881 3 20 10 25 33 24 37 -1 142 -12 173 -18 27
-6 167 -17 251 -20 83 -4 93 4 86 71 -3 31 -8 58 -11 61 -2 3 -28 6 -57 8 -63
3 -158 13 -178 19 -8 3 -31 6 -50 9 -19 2 -63 9 -98 16 -35 6 -77 13 -94 15
-16 2 -32 5 -34 7 -9 9 -1 249 11 328 2 14 7 80 10 147 9 172 4 158 61 156 27
-1 65 -4 84 -7 19 -2 55 -7 80 -11 51 -6 91 -12 170 -23 118 -17 205 8 257 75
64 82 83 181 75 381 l-2 42 -42 0 c-24 0 -72 4 -108 9 -36 5 -87 12 -115 16
-27 3 -57 8 -65 10 -8 2 -46 7 -84 10 -38 3 -73 8 -78 11 -11 7 -387 13 -433
7z"/>
<path d="M1286 1119 c-52 -17 -106 -49 -142 -84 -26 -25 -73 -98 -68 -106 3
-5 1 -9 -4 -9 -18 0 -31 -85 -28 -185 2 -89 6 -106 33 -160 48 -91 121 -163
218 -212 47 -24 176 -65 183 -59 2 3 -5 18 -17 35 -88 123 -93 256 -11 293 16
7 30 15 30 19 0 6 83 3 135 -5 37 -6 145 -48 180 -70 315 -198 590 -199 790
-3 65 64 148 195 150 237 0 3 3 10 7 16 16 24 34 154 22 154 -4 0 -24 -17 -43
-38 -56 -59 -180 -146 -226 -159 -73 -19 -99 -23 -150 -24 -97 -1 -199 28
-347 100 -104 51 -219 112 -228 121 -7 8 -138 84 -187 108 -93 48 -209 60
-297 31z"/>
</g>
</svg>
